<?xml version="1.0" encoding="UTF-8"?>
<svg width="510" height="360" version="1.0" viewBox="0 0 382.5 269.99999" xmlns="http://www.w3.org/2000/svg" zoomAndPan="magnify">
<defs>
<clipPath id="h">
<path d="m209 61h159v222h-159z"/>
</clipPath>
<clipPath id="g">
<path d="m204.46 68.473 131.55-36.438 60.656 219-131.55 36.438z"/>
</clipPath>
<clipPath id="f">
<path d="m204.46 68.473 131.55-36.438 60.656 219-131.55 36.438z"/>
</clipPath>
<clipPath id="e">
<path d="m204.46 68.473 131.55-36.438 60.656 219-131.55 36.438z"/>
</clipPath>
<clipPath id="d">
<path d="m7 99h159v222h-159z"/>
</clipPath>
<clipPath id="c">
<path d="m-21.395 131.03 131.55-36.434 60.656 219-131.55 36.434z"/>
</clipPath>
<clipPath id="b">
<path d="m109.92 94.66-131.55 36.434 60.656 219 131.55-36.434z"/>
</clipPath>
<clipPath id="a">
<path d="m109.92 94.66-131.55 36.434 60.656 219 131.55-36.434z"/>
</clipPath>
</defs>
<g transform="translate(1.8007 -58.073)" fill="#fff">
<g transform="translate(160.99 315.15)" fill="#fff">
<g fill="#fff">
<path d="m-11.68-53.961c7.9883 28.836 39.605 46.227 68.746 38.156 30.355-8.4102 46.648-38.09 38.41-67.836l-6.7266-24.285-51.301 14.211 7.4844 27.016c0.92188 3.3359-3.7969 3.9922-4.5547 1.2617l-8.8281-31.875 55.855-15.469-14.293-51.605-55.855 15.473-7.9883-28.84c-1.0078-3.6406 3.5469-4.9023 4.5547-1.2617l6.4727 23.375 51.301-14.211-6.4727-23.371c-8.2422-29.75-38.34-47.559-69-39.066-28.836 7.9844-46.395 38.996-38.156 68.746z" fill="#fff"/>
</g>
</g>
</g>
<g transform="translate(12.155 -59.424)" clip-path="url(#h)" fill="#fff">
<g clip-path="url(#g)" fill="#fff">
<g clip-path="url(#f)" fill="#fff">
<g clip-path="url(#e)" fill="#fff">
<path d="m269.72 279.36c-0.65235-0.36719-1.2891-0.76172-1.9024-1.1914-0.61328-0.42968-1.2031-0.88671-1.7734-1.3711-0.5664-0.48828-1.1094-1-1.6289-1.543-0.51563-0.53906-1.0078-1.1016-1.4688-1.6914-0.46094-0.58985-0.89453-1.1992-1.2969-1.832-0.39843-0.6289-0.76953-1.2812-1.1055-1.9453-0.33984-0.66797-0.64453-1.3516-0.91406-2.0508s-0.5039-1.4062-0.70312-2.1289c-0.19922-0.71875-0.36328-1.4492-0.49219-2.1875-0.125-0.73437-0.21875-1.4766-0.26953-2.2226-0.0547-0.7461-0.0742-1.4961-0.0547-2.2422 0.0195-0.75 0.0781-1.4922 0.17188-2.2344 0.0898-0.74219 0.22265-1.4805 0.38671-2.2109 0.16797-0.73047 0.36719-1.4492 0.60547-2.1562 0.23828-0.71094 0.50782-1.4102 0.8125-2.0898 0.3086-0.68359 0.64844-1.3516 1.0195-2l52.391-92.094-92.305-52.012c-0.65234-0.36719-1.2852-0.76172-1.9023-1.1914-0.61328-0.42969-1.2031-0.88672-1.7734-1.3711-0.56641-0.48828-1.1094-1-1.6289-1.543-0.51562-0.53906-1.0078-1.1055-1.4688-1.6914-0.46093-0.58984-0.89453-1.1992-1.2969-1.832-0.39844-0.62891-0.76953-1.2812-1.1055-1.9492-0.33984-0.66797-0.64062-1.3477-0.91406-2.0469-0.26953-0.69922-0.50391-1.4062-0.70313-2.1289-0.19922-0.71875-0.36328-1.4492-0.49218-2.1875-0.125-0.73828-0.21875-1.4766-0.26954-2.2227-0.0547-0.74609-0.0742-1.4961-0.0547-2.2422 0.0195-0.75 0.0781-1.4922 0.17187-2.2383 0.0898-0.74219 0.22266-1.4766 0.38672-2.207 0.16797-0.73047 0.36719-1.4492 0.60547-2.1602 0.23828-0.70703 0.50781-1.4062 0.81641-2.0898 0.30468-0.67969 0.64453-1.3477 1.0156-1.9961 0.36719-0.65234 0.76172-1.2852 1.1914-1.9023 0.42968-0.61328 0.88672-1.2031 1.375-1.7695 0.48828-0.57031 1.0039-1.1133 1.543-1.6289 0.54296-0.51953 1.1055-1.0078 1.6953-1.4688 0.58984-0.46484 1.2031-0.89453 1.832-1.2969 0.63281-0.40234 1.2852-0.76953 1.9531-1.1094 0.66797-0.33594 1.3516-0.64062 2.0508-0.91016 0.69921-0.26953 1.4102-0.50391 2.1289-0.70312 0.72266-0.20313 1.4531-0.36719 2.1914-0.49219 0.73828-0.12891 1.4805-0.21875 2.2266-0.27344 0.74609-0.05469 1.4961-0.07422 2.2422-0.05469 0.75 0.01953 1.4961 0.07422 2.2383 0.16797 0.74609 0.09375 1.4805 0.22266 2.2109 0.38672 0.73047 0.16406 1.4492 0.36719 2.1602 0.60156 0.71094 0.23828 1.4102 0.50781 2.0938 0.8125 0.6836 0.30859 1.3477 0.64453 2 1.0156l111.96 63.313c0.65234 0.36719 1.2852 0.76172 1.8984 1.1914 0.61328 0.42968 1.2031 0.88671 1.7734 1.3711 0.57031 0.48828 1.1133 1 1.6289 1.543 0.51953 0.53906 1.0078 1.1055 1.4688 1.6914 0.46485 0.58985 0.89453 1.1992 1.2969 1.832 0.40234 0.6289 0.76953 1.2812 1.1094 1.9492 0.33594 0.66797 0.64063 1.3477 0.91016 2.0469s0.5039 1.4062 0.70312 2.1289c0.19922 0.71875 0.36328 1.4492 0.49219 2.1875 0.12891 0.73828 0.21875 1.4766 0.27344 2.2226 0.0547 0.7461 0.0703 1.4961 0.0508 2.2422-0.0195 0.75-0.0742 1.4922-0.16797 2.2383-0.0937 0.74219-0.22266 1.4766-0.39062 2.207-0.16407 0.73047-0.36719 1.4492-0.60547 2.1602-0.23438 0.70703-0.50782 1.4062-0.8125 2.0898-0.30469 0.67969-0.64453 1.3477-1.0156 1.9961l-63.434 111.89c-0.36719 0.65234-0.76563 1.2852-1.1953 1.8984-0.42969 0.61329-0.88672 1.2031-1.375 1.7734-0.48829 0.56641-1 1.1094-1.543 1.6289-0.53907 0.51562-1.1055 1.0039-1.6953 1.4688-0.58984 0.46094-1.1992 0.89062-1.832 1.293-0.63281 0.40234-1.2812 0.77343-1.9492 1.1094-0.67187 0.33594-1.3555 0.64063-2.0508 0.91016-0.69922 0.26953-1.4102 0.50781-2.1328 0.70703s-1.4531 0.36328-2.1875 0.49219c-0.73828 0.125-1.4805 0.21875-2.2305 0.27343-0.74609 0.0547-1.4922 0.0703-2.2422 0.0508s-1.4961-0.0742-2.2383-0.16797c-0.74218-0.0899-1.4805-0.21875-2.2109-0.38672-0.73047-0.16406-1.4492-0.36719-2.1602-0.60156-0.71094-0.23829-1.4062-0.50782-2.0898-0.8125-0.6836-0.30469-1.3516-0.64454-2-1.0156z" fill="#fff"/>
</g>
</g>
</g>
</g>
<g transform="translate(-5.4022 -52.97)" clip-path="url(#d)" fill="#fff">
<g clip-path="url(#c)" fill="#fff">
<g clip-path="url(#b)" fill="#fff">
<g clip-path="url(#a)" fill="#fff">
<path d="m162.46 309.07c0.37109-0.65235 0.71094-1.3164 1.0195-2 0.30469-0.6836 0.57422-1.3789 0.8125-2.0898 0.23828-0.71093 0.4375-1.4297 0.60547-2.1602 0.16406-0.73047 0.29688-1.4648 0.38672-2.207 0.0937-0.74219 0.15234-1.4883 0.17187-2.2344 0.0195-0.75 0-1.4961-0.0547-2.2422-0.0508-0.74609-0.14453-1.4883-0.26953-2.2266-0.12891-0.73828-0.29297-1.4648-0.49219-2.1875-0.19922-0.71875-0.4336-1.4297-0.70313-2.1289-0.26953-0.69532-0.57422-1.3789-0.91406-2.0469-0.33594-0.66797-0.70703-1.3164-1.1055-1.9492-0.40234-0.6289-0.83594-1.2422-1.2969-1.8281-0.46094-0.58985-0.95313-1.1562-1.4688-1.6953-0.51953-0.53906-1.0625-1.0547-1.6289-1.5391-0.57031-0.48828-1.1602-0.94531-1.7734-1.375-0.61328-0.42578-1.25-0.82422-1.9023-1.1914l-92.305-52.012 52.391-92.09c0.37109-0.65234 0.71094-1.3164 1.0195-2 0.30469-0.68359 0.57422-1.3789 0.8125-2.0898s0.4375-1.4297 0.60547-2.1602c0.16406-0.73046 0.29687-1.4648 0.38672-2.207 0.0937-0.74218 0.15234-1.4883 0.17187-2.2383 0.0195-0.74609 0-1.4922-0.0547-2.2383-0.0508-0.74609-0.14453-1.4883-0.26953-2.2266-0.1289-0.73828-0.29297-1.4648-0.49218-2.1875-0.19922-0.71875-0.4336-1.4297-0.70313-2.1289-0.26953-0.69531-0.57422-1.3789-0.91406-2.0469-0.33594-0.66797-0.70313-1.3164-1.1055-1.9492s-0.83594-1.2422-1.2969-1.8281c-0.46093-0.58984-0.95312-1.1562-1.4688-1.6953-0.51953-0.53906-1.0625-1.0547-1.6289-1.5391-0.57031-0.48828-1.1602-0.94531-1.7734-1.375-0.61328-0.42578-1.25-0.82422-1.9023-1.1914-0.64844-0.37109-1.3164-0.70703-2-1.0117-0.6836-0.30859-1.3789-0.57812-2.0898-0.8125-0.71093-0.23828-1.4297-0.4414-2.1602-0.60547-0.73047-0.16406-1.4688-0.29296-2.2109-0.38672-0.74219-0.09375-1.4883-0.14844-2.2383-0.16797-0.75-0.01953-1.4961 0-2.2422 0.05469-0.75 0.05469-1.4922 0.14453-2.2305 0.27343-0.73438 0.12891-1.4648 0.29297-2.1875 0.49219-0.72266 0.19922-1.4336 0.43359-2.1328 0.70312-0.69531 0.26954-1.3789 0.57422-2.0508 0.91016-0.66797 0.33984-1.3164 0.70703-1.9492 1.1094-0.63281 0.40234-1.2422 0.83203-1.832 1.2969-0.58984 0.46094-1.1562 0.94922-1.6953 1.4688-0.54297 0.51563-1.0547 1.0586-1.543 1.6289-0.48828 0.5664-0.94531 1.1602-1.375 1.7734-0.42969 0.61329-0.82812 1.2461-1.1953 1.8984l-63.434 111.89c-0.37109 0.64843-0.70703 1.3164-1.0156 2-0.30469 0.68359-0.57812 1.3789-0.8125 2.0898-0.23828 0.70703-0.44141 1.4297-0.60547 2.1602-0.16797 0.72656-0.29688 1.4648-0.39062 2.207-0.09375 0.74218-0.14844 1.4883-0.16797 2.2344-0.019531 0.75-0.00391 1.4961 0.050782 2.2422 0.054687 0.74609 0.14453 1.4883 0.27344 2.2266 0.12891 0.73438 0.29297 1.4648 0.49219 2.1875 0.19922 0.71875 0.43359 1.4297 0.70312 2.125 0.26953 0.69922 0.57422 1.3828 0.91016 2.0508 0.33984 0.66797 0.70703 1.3164 1.1094 1.9492 0.40234 0.62891 0.83203 1.2383 1.2969 1.8281 0.46094 0.58984 0.94922 1.1523 1.4688 1.6953 0.51562 0.53906 1.0586 1.0508 1.6289 1.5391 0.57031 0.48828 1.1602 0.94531 1.7734 1.3711 0.61328 0.42968 1.2461 0.82812 1.9023 1.1914l111.96 63.312c0.65234 0.3711 1.3203 0.71094 2 1.0156 0.68359 0.30468 1.3828 0.57422 2.0938 0.8125s1.4297 0.4375 2.1602 0.60156c0.73047 0.16797 1.4688 0.29687 2.2109 0.39062 0.74219 0.0899 1.4883 0.14844 2.2383 0.16407 0.7461 0.0195 1.4961 4e-3 2.2422-0.0508 0.74609-0.0547 1.4883-0.14844 2.2266-0.27344 0.73828-0.12891 1.4688-0.29297 2.1914-0.49219 0.71875-0.19922 1.4297-0.43359 2.1289-0.70703 0.69921-0.26953 1.3828-0.57031 2.0508-0.91016 0.66797-0.33593 1.3203-0.70703 1.9531-1.1094 0.62891-0.39844 1.2422-0.83203 1.832-1.293 0.58985-0.46094 1.1524-0.95313 1.6953-1.4688 0.53906-0.51953 1.0547-1.0625 1.543-1.6289 0.48829-0.57031 0.94532-1.1602 1.375-1.7734 0.42969-0.61329 0.82422-1.2461 1.1914-1.8984z" fill="#fff"/>
</g>
</g>
</g>
</g>
</svg>
