<?xml version="1.0" encoding="UTF-8" standalone="no"?>
<svg
   width="510"
   zoomAndPan="magnify"
   viewBox="0 0 382.5 269.99999"
   height="360"
   preserveAspectRatio="xMidYMid meet"
   version="1.0"
   id="svg125"
   sodipodi:docname="logo.svg"
   inkscape:version="1.1.1 (3bf5ae0d25, 2021-09-20)"
   xmlns:inkscape="http://www.inkscape.org/namespaces/inkscape"
   xmlns:sodipodi="http://sodipodi.sourceforge.net/DTD/sodipodi-0.dtd"
   xmlns="http://www.w3.org/2000/svg"
   xmlns:svg="http://www.w3.org/2000/svg">
  <sodipodi:namedview
     id="namedview127"
     pagecolor="#ffffff"
     bordercolor="#666666"
     borderopacity="1.0"
     inkscape:pageshadow="2"
     inkscape:pageopacity="0.0"
     inkscape:pagecheckerboard="true"
     showgrid="false"
     height="499px"
     width="487px"
     inkscape:zoom="1.666"
     inkscape:cx="123.64946"
     inkscape:cy="167.16687"
     inkscape:window-width="1920"
     inkscape:window-height="1051"
     inkscape:window-x="-9"
     inkscape:window-y="-9"
     inkscape:window-maximized="1"
     inkscape:current-layer="svg125"
     inkscape:snap-grids="true">
    <inkscape:grid
       type="xygrid"
       id="grid140" />
  </sodipodi:namedview>
  <defs
     id="defs95">
    <g
       id="g69" />
    <clipPath
       id="id1">
      <path
         d="M 209,61 H 368 V 283 H 209 Z m 0,0"
         clip-rule="nonzero"
         id="path71" />
    </clipPath>
    <clipPath
       id="id2">
      <path
         d="m 204.46484,68.472656 131.54688,-36.4375 60.65625,219.003904 -131.54688,36.4375 z m 0,0"
         clip-rule="nonzero"
         id="path74" />
    </clipPath>
    <clipPath
       id="id3">
      <path
         d="m 204.46484,68.472656 131.54688,-36.4375 60.65625,219.003904 -131.54688,36.4375 z m 0,0"
         clip-rule="nonzero"
         id="path77" />
    </clipPath>
    <clipPath
       id="id4">
      <path
         d="m 204.46484,68.472656 131.54688,-36.4375 60.65625,219.003904 -131.54688,36.4375 z m 0,0"
         clip-rule="nonzero"
         id="path80" />
    </clipPath>
    <clipPath
       id="id5">
      <path
         d="M 7,99 H 166 V 321 H 7 Z m 0,0"
         clip-rule="nonzero"
         id="path83" />
    </clipPath>
    <clipPath
       id="id6">
      <path
         d="M -21.394531,131.02734 110.15625,94.59375 170.8125,313.59766 39.265625,350.03125 Z m 0,0"
         clip-rule="nonzero"
         id="path86" />
    </clipPath>
    <clipPath
       id="id7">
      <path
         d="m 109.91797,94.660156 -131.546876,36.433594 60.65625,219.00391 131.550776,-36.4336 z m 0,0"
         clip-rule="nonzero"
         id="path89" />
    </clipPath>
    <clipPath
       id="id8">
      <path
         d="m 109.91797,94.660156 -131.546876,36.433594 60.65625,219.00391 131.550776,-36.4336 z m 0,0"
         clip-rule="nonzero"
         id="path92" />
    </clipPath>
  </defs>
  <g
     fill="#000000"
     fill-opacity="1"
     id="g103"
     transform="translate(1.8007199,-58.073229)"
     style="fill:#ffffff;fill-opacity:1">
    <g
       transform="translate(160.98763,315.14889)"
       id="g101"
       style="fill:#ffffff;fill-opacity:1">
      <g
         id="g99"
         style="fill:#ffffff;fill-opacity:1">
        <path
           d="m -11.679688,-53.960938 c 7.988282,28.835938 39.605469,46.226563 68.746094,38.15625 30.355469,-8.410156 46.648434,-38.089843 38.410156,-67.835937 L 88.75,-107.92578 l -51.300781,14.210936 7.484375,27.015625 c 0.921875,3.335938 -3.796875,3.992188 -4.554688,1.261719 l -8.828125,-31.875 55.855469,-15.46875 -14.292969,-51.60547 -55.855469,15.47266 -7.988281,-28.83985 c -1.007812,-3.64062 3.546875,-4.90234 4.554688,-1.26171 l 6.472656,23.375 51.300781,-14.21094 -6.472656,-23.3711 c -8.242188,-29.75 -38.339844,-47.55859 -69,-39.0664 -28.835938,7.98437 -46.394531,38.99609 -38.15625,68.74609 z m 0,0"
           id="path97"
           style="fill:#ffffff;fill-opacity:1" />
      </g>
    </g>
  </g>
  <g
     clip-path="url(#id1)"
     id="g113"
     transform="translate(12.154862,-59.423769)"
     style="fill:#ffffff;fill-opacity:1">
    <g
       clip-path="url(#id2)"
       id="g111"
       style="fill:#ffffff;fill-opacity:1">
      <g
         clip-path="url(#id3)"
         id="g109"
         style="fill:#ffffff;fill-opacity:1">
        <g
           clip-path="url(#id4)"
           id="g107"
           style="fill:#ffffff;fill-opacity:1">
          <path
             fill="#000000"
             d="m 269.72266,279.36328 c -0.65235,-0.36719 -1.28907,-0.76172 -1.90235,-1.19141 -0.61328,-0.42968 -1.20312,-0.88671 -1.77344,-1.37109 -0.5664,-0.48828 -1.10937,-1 -1.6289,-1.54297 -0.51563,-0.53906 -1.00781,-1.10156 -1.46875,-1.6914 -0.46094,-0.58985 -0.89453,-1.19922 -1.29688,-1.83204 -0.39843,-0.6289 -0.76953,-1.28125 -1.10547,-1.94531 -0.33984,-0.66797 -0.64453,-1.35156 -0.91406,-2.05078 -0.26953,-0.69922 -0.5039,-1.40625 -0.70312,-2.12891 -0.19922,-0.71875 -0.36328,-1.44921 -0.49219,-2.1875 -0.125,-0.73437 -0.21875,-1.47656 -0.26953,-2.22265 -0.0547,-0.7461 -0.0742,-1.4961 -0.0547,-2.24219 0.0195,-0.75 0.0781,-1.49219 0.17188,-2.23437 0.0898,-0.74219 0.22265,-1.48047 0.38671,-2.21094 0.16797,-0.73047 0.36719,-1.44922 0.60547,-2.15625 0.23828,-0.71094 0.50782,-1.41016 0.8125,-2.08985 0.3086,-0.68359 0.64844,-1.35156 1.01953,-2 L 313.5,156.17187 221.19531,104.16016 c -0.65234,-0.36719 -1.28515,-0.76172 -1.90234,-1.19141 -0.61328,-0.42969 -1.20313,-0.88672 -1.77344,-1.37109 -0.56641,-0.48828 -1.10937,-1 -1.62891,-1.54297 -0.51562,-0.539065 -1.00781,-1.105471 -1.46875,-1.691409 -0.46093,-0.589843 -0.89453,-1.199219 -1.29687,-1.832031 -0.39844,-0.628906 -0.76953,-1.28125 -1.10547,-1.949219 -0.33984,-0.667969 -0.64062,-1.347656 -0.91406,-2.046875 -0.26953,-0.699218 -0.50391,-1.40625 -0.70313,-2.128906 -0.19922,-0.71875 -0.36328,-1.449219 -0.49218,-2.1875 -0.125,-0.738281 -0.21875,-1.476562 -0.26954,-2.222656 -0.0547,-0.746094 -0.0742,-1.496094 -0.0547,-2.242188 0.0195,-0.75 0.0781,-1.492187 0.17187,-2.238281 0.0898,-0.742187 0.22266,-1.476563 0.38672,-2.207031 0.16797,-0.730469 0.36719,-1.449219 0.60547,-2.160156 0.23828,-0.707032 0.50781,-1.40625 0.81641,-2.089844 0.30468,-0.679688 0.64453,-1.347656 1.01562,-1.996094 0.36719,-0.652344 0.76172,-1.285156 1.19141,-1.902344 0.42968,-0.613281 0.88672,-1.203125 1.375,-1.769531 0.48828,-0.570313 1.0039,-1.113281 1.54297,-1.628906 0.54296,-0.519531 1.10546,-1.007813 1.69531,-1.46875 0.58984,-0.464844 1.20312,-0.894531 1.83203,-1.296875 0.63281,-0.402344 1.28516,-0.769532 1.95312,-1.109375 0.66797,-0.335938 1.35157,-0.640625 2.05079,-0.910157 0.69921,-0.269531 1.41015,-0.503906 2.1289,-0.703124 0.72266,-0.203126 1.45313,-0.367188 2.19141,-0.492188 0.73828,-0.128906 1.48047,-0.21875 2.22656,-0.273438 0.74609,-0.05469 1.49609,-0.07422 2.24219,-0.05469 0.75,0.01953 1.49609,0.07422 2.23828,0.167969 0.74609,0.09375 1.48047,0.222656 2.21094,0.386718 0.73047,0.164063 1.44922,0.367188 2.16015,0.601563 0.71094,0.238281 1.41016,0.507813 2.09375,0.8125 0.6836,0.308594 1.34766,0.644531 2,1.015625 L 355.67578,127.75 c 0.65234,0.36719 1.28516,0.76172 1.89844,1.19141 0.61328,0.42968 1.20312,0.88671 1.77344,1.37109 0.57031,0.48828 1.11328,1 1.6289,1.54297 0.51953,0.53906 1.00781,1.10547 1.46875,1.6914 0.46485,0.58985 0.89453,1.19922 1.29688,1.83204 0.40234,0.6289 0.76953,1.28125 1.10937,1.94921 0.33594,0.66797 0.64063,1.34766 0.91016,2.04688 0.26953,0.69922 0.5039,1.40625 0.70312,2.12891 0.19922,0.71875 0.36328,1.44921 0.49219,2.1875 0.12891,0.73828 0.21875,1.47656 0.27344,2.22265 0.0547,0.7461 0.0703,1.4961 0.0508,2.24219 -0.0195,0.75 -0.0742,1.49219 -0.16797,2.23828 -0.0937,0.74219 -0.22266,1.47656 -0.39062,2.20703 -0.16407,0.73047 -0.36719,1.44922 -0.60547,2.16016 -0.23438,0.70703 -0.50782,1.40625 -0.8125,2.08984 -0.30469,0.67969 -0.64453,1.34766 -1.01563,1.9961 l -63.43359,111.89453 c -0.36719,0.65234 -0.76563,1.28515 -1.19531,1.89843 -0.42969,0.61329 -0.88672,1.20313 -1.375,1.77344 -0.48829,0.56641 -1,1.10938 -1.54297,1.62891 -0.53907,0.51562 -1.10547,1.0039 -1.69532,1.46875 -0.58984,0.46094 -1.19921,0.89062 -1.83203,1.29297 -0.63281,0.40234 -1.28125,0.77343 -1.94922,1.10937 -0.67187,0.33594 -1.35546,0.64063 -2.05078,0.91016 -0.69922,0.26953 -1.41015,0.50781 -2.13281,0.70703 -0.72266,0.19922 -1.45312,0.36328 -2.1875,0.49219 -0.73828,0.125 -1.48047,0.21875 -2.23047,0.27343 -0.74609,0.0547 -1.49219,0.0703 -2.24219,0.0508 -0.75,-0.0195 -1.49609,-0.0742 -2.23828,-0.16797 -0.74218,-0.0899 -1.48047,-0.21875 -2.21093,-0.38672 -0.73047,-0.16406 -1.44922,-0.36719 -2.16016,-0.60156 -0.71094,-0.23829 -1.40625,-0.50782 -2.08984,-0.8125 -0.6836,-0.30469 -1.35157,-0.64454 -2,-1.01563 z m 0,0"
             fill-opacity="1"
             fill-rule="nonzero"
             id="path105"
             style="fill:#ffffff;fill-opacity:1" />
        </g>
      </g>
    </g>
  </g>
  <g
     clip-path="url(#id5)"
     id="g123"
     transform="translate(-5.4021608,-52.969988)"
     style="fill:#ffffff;fill-opacity:1">
    <g
       clip-path="url(#id6)"
       id="g121"
       style="fill:#ffffff;fill-opacity:1">
      <g
         clip-path="url(#id7)"
         id="g119"
         style="fill:#ffffff;fill-opacity:1">
        <g
           clip-path="url(#id8)"
           id="g117"
           style="fill:#ffffff;fill-opacity:1">
          <path
             fill="#000000"
             d="m 162.45703,309.07422 c 0.37109,-0.65235 0.71094,-1.31641 1.01953,-2 0.30469,-0.6836 0.57422,-1.37891 0.8125,-2.08985 0.23828,-0.71093 0.4375,-1.42968 0.60547,-2.16015 0.16406,-0.73047 0.29688,-1.46485 0.38672,-2.20703 0.0937,-0.74219 0.15234,-1.48828 0.17187,-2.23438 0.0195,-0.75 0,-1.49609 -0.0547,-2.24219 -0.0508,-0.74609 -0.14453,-1.48828 -0.26953,-2.22656 -0.12891,-0.73828 -0.29297,-1.46484 -0.49219,-2.1875 -0.19922,-0.71875 -0.4336,-1.42969 -0.70313,-2.1289 -0.26953,-0.69532 -0.57422,-1.37891 -0.91406,-2.04688 -0.33594,-0.66797 -0.70703,-1.31641 -1.10547,-1.94922 -0.40234,-0.6289 -0.83594,-1.24219 -1.29687,-1.82812 -0.46094,-0.58985 -0.95313,-1.15625 -1.46875,-1.69532 -0.51953,-0.53906 -1.0625,-1.05468 -1.62891,-1.53906 -0.57031,-0.48828 -1.16016,-0.94531 -1.77344,-1.375 -0.61328,-0.42578 -1.25,-0.82422 -1.90234,-1.1914 L 61.539062,225.96094 113.92969,133.87109 c 0.37109,-0.65234 0.71094,-1.3164 1.01953,-2 0.30469,-0.68359 0.57422,-1.3789 0.8125,-2.08984 0.23828,-0.71094 0.4375,-1.42969 0.60547,-2.16016 0.16406,-0.73046 0.29687,-1.46484 0.38672,-2.20703 0.0937,-0.74218 0.15234,-1.48828 0.17187,-2.23828 0.0195,-0.74609 0,-1.49219 -0.0547,-2.23828 -0.0508,-0.74609 -0.14453,-1.48828 -0.26953,-2.22656 -0.1289,-0.73828 -0.29297,-1.46485 -0.49218,-2.1875 -0.19922,-0.71875 -0.4336,-1.42969 -0.70313,-2.12891 -0.26953,-0.69531 -0.57422,-1.3789 -0.91406,-2.04687 -0.33594,-0.66797 -0.70313,-1.31641 -1.10547,-1.94922 -0.40234,-0.63281 -0.83594,-1.24219 -1.29688,-1.82813 -0.46093,-0.58984 -0.95312,-1.15625 -1.46875,-1.69531 -0.51953,-0.53906 -1.0625,-1.05469 -1.6289,-1.53906 -0.57031,-0.48828 -1.16016,-0.94531 -1.77344,-1.375 -0.61328,-0.42578 -1.25,-0.82422 -1.90234,-1.19141 -0.64844,-0.37109 -1.31641,-0.70703 -2,-1.01172 -0.6836,-0.30859 -1.37891,-0.57812 -2.08985,-0.8125 -0.71093,-0.23828 -1.429685,-0.4414 -2.160154,-0.60547 -0.730468,-0.16406 -1.46875,-0.29296 -2.210937,-0.386715 -0.742188,-0.09375 -1.488281,-0.148437 -2.238281,-0.167969 -0.75,-0.01953 -1.496094,0 -2.242188,0.05469 -0.75,0.05469 -1.492188,0.144531 -2.230469,0.273434 -0.734375,0.12891 -1.464843,0.29297 -2.1875,0.49219 -0.722656,0.19922 -1.433593,0.43359 -2.132812,0.70312 -0.695313,0.26954 -1.378907,0.57422 -2.050781,0.91016 -0.667969,0.33984 -1.316407,0.70703 -1.949219,1.10938 -0.632813,0.40234 -1.242188,0.83203 -1.832031,1.29687 -0.589844,0.46094 -1.15625,0.94922 -1.695313,1.46875 -0.542969,0.51563 -1.054687,1.05859 -1.542969,1.62891 -0.488281,0.5664 -0.945312,1.16015 -1.375,1.77343 -0.429687,0.61329 -0.828125,1.2461 -1.195312,1.89844 L 10.75,223.28516 c -0.371094,0.64843 -0.707031,1.3164 -1.015625,2 -0.304687,0.68359 -0.578125,1.3789 -0.8125,2.08984 -0.238281,0.70703 -0.441406,1.42969 -0.605469,2.16016 -0.167968,0.72656 -0.296875,1.46484 -0.390625,2.20703 -0.09375,0.74218 -0.148437,1.48828 -0.167969,2.23437 -0.019531,0.75 -0.00391,1.4961 0.050782,2.24219 0.054687,0.74609 0.144531,1.48828 0.273437,2.22656 0.128907,0.73438 0.292969,1.46485 0.492188,2.1875 0.199219,0.71875 0.433593,1.42969 0.703125,2.125 0.269531,0.69922 0.574218,1.38281 0.910156,2.05078 0.339844,0.66797 0.707031,1.31641 1.109375,1.94922 0.402344,0.62891 0.832031,1.23828 1.296875,1.82813 0.460938,0.58984 0.949219,1.15234 1.46875,1.69531 0.515625,0.53906 1.058594,1.05078 1.628906,1.53906 0.570313,0.48828 1.160156,0.94531 1.773438,1.3711 0.613281,0.42968 1.246094,0.82812 1.902344,1.1914 l 111.957032,63.3125 c 0.65234,0.3711 1.32031,0.71094 2,1.01563 0.68359,0.30468 1.38281,0.57422 2.09375,0.8125 0.71094,0.23828 1.42969,0.4375 2.16015,0.60156 0.73047,0.16797 1.46875,0.29687 2.21094,0.39062 0.74219,0.0899 1.48828,0.14844 2.23828,0.16407 0.7461,0.0195 1.4961,0.004 2.24219,-0.0508 0.74609,-0.0547 1.48828,-0.14844 2.22656,-0.27344 0.73828,-0.12891 1.46875,-0.29297 2.19141,-0.49219 0.71875,-0.19922 1.42969,-0.43359 2.12891,-0.70703 0.69921,-0.26953 1.38281,-0.57031 2.05078,-0.91016 0.66797,-0.33593 1.32031,-0.70703 1.95312,-1.10937 0.62891,-0.39844 1.24219,-0.83203 1.83203,-1.29297 0.58985,-0.46094 1.15235,-0.95313 1.69532,-1.46875 0.53906,-0.51953 1.05468,-1.0625 1.54296,-1.62891 0.48829,-0.57031 0.94532,-1.16015 1.375,-1.77343 0.42969,-0.61329 0.82422,-1.2461 1.19141,-1.89844 z m 0,0"
             fill-opacity="1"
             fill-rule="nonzero"
             id="path115"
             style="fill:#ffffff;fill-opacity:1" />
        </g>
      </g>
    </g>
  </g>
</svg>
